<?xml version="1.0" encoding="utf-8"?><!-- Generator: Adobe Illustrator 19.0.0, SVG Export Plug-In . SVG Version: 6.00 Build 0) --><svg version="1.1" id="图层_1" xmlns="http://www.w3.org/2000/svg" xmlns:xlink="http://www.w3.org/1999/xlink" x="0px" y="0px"	 viewBox="-435 437 129 128" style="enable-background:new -435 437 129 128;" xml:space="preserve"><style type="text/css">	.st0{fill:url(#XMLID_2_);}	.st1{fill:url(#XMLID_3_);}	.st2{fill:url(#XMLID_4_);}</style><desc>Created with Sketch.</desc><g id="XMLID_625_">	<linearGradient id="XMLID_2_" gradientUnits="userSpaceOnUse" x1="-420.4755" y1="514.1548" x2="-349.9095" y2="514.1548">		<stop offset="0" style="stop-color:#29CDFF"/>		<stop offset="0.3786" style="stop-color:#148EFF"/>		<stop offset="1" style="stop-color:#1890FF"/>	</linearGradient>	<path id="XMLID_655_" class="st0" d="M-357.7,521.9c4.3,0,7.7-3.5,7.7-7.7s-3.5-7.7-7.7-7.7c-3,0-5.5,1.7-6.8,4.1h-56v7.3h56		C-363.2,520.2-360.6,521.9-357.7,521.9L-357.7,521.9z"/>	<linearGradient id="XMLID_3_" gradientUnits="userSpaceOnUse" x1="-420.4765" y1="475.9219" x2="-320.5236" y2="475.9219">		<stop offset="0" style="stop-color:#29CDFF"/>		<stop offset="0.3786" style="stop-color:#148EFF"/>		<stop offset="1" style="stop-color:#1890FF"/>	</linearGradient>	<path id="XMLID_630_" class="st1" d="M-378.6,496.5c2.8-3.2,2.7-6.9,2.6-8.1v-2.9h19.2c1.3,2.4,3.9,4.1,6.8,4.1		c4.3,0,7.7-3.5,7.7-7.7s-3.5-7.7-7.7-7.7c-3,0-5.5,1.7-6.8,4.1H-376v-2.5c0-1.2,0.2-4.2,2.4-6.6c2.2-2.4,5.7-3.7,10.6-3.7h20.4		c1.5,4.5,5.7,7.8,10.7,7.8c6.2,0,11.3-5.1,11.3-11.3s-5.1-11.3-11.3-11.3c-4.9,0-9,3.1-10.6,7.4H-363c-3.6,0-6.8,0.6-9.6,1.7		c-2.6,1-4.7,2.5-6.5,4.5c-3.7,4.1-4.3,9-4.3,11.5v2.5h-37.2v7.3h37.2v3.1l0,0.2l0.1,0.3c0,0.3,0.1,1.6-0.9,2.7c-1.2,1.3-3.6,2-7,2		h-29.3v7.3h29.3C-385.5,501.2-381.2,499.6-378.6,496.5L-378.6,496.5z M-331.8,456.5c3,0,5.4,2.4,5.4,5.4c0,3-2.4,5.4-5.4,5.4		s-5.4-2.4-5.4-5.4C-337.2,459-334.8,456.5-331.8,456.5L-331.8,456.5z"/>	<linearGradient id="XMLID_4_" gradientUnits="userSpaceOnUse" x1="-420.4745" y1="538.429" x2="-320.5246" y2="538.429">		<stop offset="0" style="stop-color:#29CDFF"/>		<stop offset="0.3786" style="stop-color:#148EFF"/>		<stop offset="1" style="stop-color:#1890FF"/>	</linearGradient>	<path id="XMLID_626_" class="st2" d="M-331.8,528.8c-4.9,0-9.2,3.2-10.7,7.6h-2.7c-1.4,0-2.6,0-3.8,0c-3.7,0.1-6.3,0.1-8.9-0.4		c-2.7-0.6-5.4-1.7-8.9-4c-10.3-6.5-18.5-6.5-28.8-6.5h-24.9v7.3h24.9c4.9,0,9.2,0,13.1,0.7c4.2,0.7,7.8,2.2,11.8,4.7		c4.3,2.7,7.7,4.2,11.3,4.9c2.5,0.5,4.9,0.6,7.5,0.6c0.9,0,1.9,0,2.9,0c1.2,0,2.4,0,3.7,0h2.7c1.5,4.4,5.7,7.6,10.7,7.6		c6.2,0,11.3-5.1,11.3-11.3C-320.5,533.8-325.6,528.8-331.8,528.8L-331.8,528.8z M-331.8,545.5c-3,0-5.4-2.4-5.4-5.4		c0-3,2.4-5.4,5.4-5.4s5.4,2.4,5.4,5.4C-326.4,543-328.8,545.5-331.8,545.5L-331.8,545.5z"/></g></svg>